<mxfile host="app.diagrams.net" modified="2022-02-17T07:10:34.490Z" agent="5.0 (Windows NT 10.0; Win64; x64) AppleWebKit/537.36 (KHTML, like Gecko) Chrome/98.0.4758.82 Safari/537.36" etag="1XmdQObKgSCsl4VCiGbN" version="16.5.6" type="github">
  <diagram id="bro4yYQ4YSrCH9LrcB9a" name="Page-1">
    <mxGraphModel dx="1662" dy="794" grid="0" gridSize="10" guides="1" tooltips="1" connect="1" arrows="1" fold="1" page="1" pageScale="1" pageWidth="827" pageHeight="1169" math="0" shadow="0">
      <root>
        <mxCell id="0" />
        <mxCell id="1" parent="0" />
        <mxCell id="eqaavjk_5cH76jJyOMta-1" value="시작" style="strokeWidth=2;html=1;shape=mxgraph.flowchart.terminator;whiteSpace=wrap;" vertex="1" parent="1">
          <mxGeometry x="341" y="50" width="100" height="60" as="geometry" />
        </mxCell>
        <mxCell id="eqaavjk_5cH76jJyOMta-3" value="&lt;span&gt;LiDAR 값 입력&lt;/span&gt;" style="shape=parallelogram;perimeter=parallelogramPerimeter;whiteSpace=wrap;html=1;fixedSize=1;" vertex="1" parent="1">
          <mxGeometry x="331" y="145" width="120" height="60" as="geometry" />
        </mxCell>
        <mxCell id="eqaavjk_5cH76jJyOMta-4" value="입력 받은 LiDAR 값을 &lt;br&gt;카메라와 동일 좌표로 변환" style="rounded=0;whiteSpace=wrap;html=1;" vertex="1" parent="1">
          <mxGeometry x="331" y="233" width="120" height="60" as="geometry" />
        </mxCell>
        <mxCell id="eqaavjk_5cH76jJyOMta-5" value="변환된 값 &amp;lt; =FOV" style="strokeWidth=2;html=1;shape=mxgraph.flowchart.decision;whiteSpace=wrap;" vertex="1" parent="1">
          <mxGeometry x="321" y="329" width="140" height="120" as="geometry" />
        </mxCell>
        <mxCell id="eqaavjk_5cH76jJyOMta-6" value="" style="endArrow=classic;html=1;rounded=0;exitX=0.5;exitY=1;exitDx=0;exitDy=0;exitPerimeter=0;entryX=0.5;entryY=0;entryDx=0;entryDy=0;" edge="1" parent="1" source="eqaavjk_5cH76jJyOMta-5" target="eqaavjk_5cH76jJyOMta-8">
          <mxGeometry width="50" height="50" relative="1" as="geometry">
            <mxPoint x="357" y="391" as="sourcePoint" />
            <mxPoint x="391" y="467" as="targetPoint" />
          </mxGeometry>
        </mxCell>
        <mxCell id="eqaavjk_5cH76jJyOMta-8" value="변환된 LiDAR 값&lt;br&gt;&amp;nbsp;선형 보간" style="rounded=0;whiteSpace=wrap;html=1;" vertex="1" parent="1">
          <mxGeometry x="331" y="481" width="120" height="60" as="geometry" />
        </mxCell>
        <mxCell id="eqaavjk_5cH76jJyOMta-9" value="카메라와 매핑" style="rounded=0;whiteSpace=wrap;html=1;" vertex="1" parent="1">
          <mxGeometry x="331" y="569" width="120" height="60" as="geometry" />
        </mxCell>
        <mxCell id="eqaavjk_5cH76jJyOMta-10" value="종료" style="strokeWidth=2;html=1;shape=mxgraph.flowchart.terminator;whiteSpace=wrap;" vertex="1" parent="1">
          <mxGeometry x="341" y="758" width="100" height="60" as="geometry" />
        </mxCell>
        <mxCell id="eqaavjk_5cH76jJyOMta-12" value="" style="endArrow=classic;html=1;rounded=0;exitX=0.5;exitY=1;exitDx=0;exitDy=0;exitPerimeter=0;" edge="1" parent="1" source="eqaavjk_5cH76jJyOMta-1">
          <mxGeometry width="50" height="50" relative="1" as="geometry">
            <mxPoint x="390.5" y="126" as="sourcePoint" />
            <mxPoint x="391" y="143" as="targetPoint" />
          </mxGeometry>
        </mxCell>
        <mxCell id="eqaavjk_5cH76jJyOMta-13" value="" style="endArrow=classic;html=1;rounded=0;exitX=0.5;exitY=1;exitDx=0;exitDy=0;entryX=0.5;entryY=0;entryDx=0;entryDy=0;" edge="1" parent="1" source="eqaavjk_5cH76jJyOMta-3" target="eqaavjk_5cH76jJyOMta-4">
          <mxGeometry width="50" height="50" relative="1" as="geometry">
            <mxPoint x="411" y="460" as="sourcePoint" />
            <mxPoint x="411" y="503" as="targetPoint" />
          </mxGeometry>
        </mxCell>
        <mxCell id="eqaavjk_5cH76jJyOMta-14" value="" style="endArrow=classic;html=1;rounded=0;exitX=0.5;exitY=1;exitDx=0;exitDy=0;entryX=0.5;entryY=0;entryDx=0;entryDy=0;entryPerimeter=0;" edge="1" parent="1" source="eqaavjk_5cH76jJyOMta-4" target="eqaavjk_5cH76jJyOMta-5">
          <mxGeometry width="50" height="50" relative="1" as="geometry">
            <mxPoint x="421" y="470" as="sourcePoint" />
            <mxPoint x="421" y="513" as="targetPoint" />
          </mxGeometry>
        </mxCell>
        <mxCell id="eqaavjk_5cH76jJyOMta-17" value="" style="endArrow=classic;html=1;rounded=0;exitX=0.5;exitY=1;exitDx=0;exitDy=0;entryX=0.5;entryY=0;entryDx=0;entryDy=0;" edge="1" parent="1" source="eqaavjk_5cH76jJyOMta-8" target="eqaavjk_5cH76jJyOMta-9">
          <mxGeometry width="50" height="50" relative="1" as="geometry">
            <mxPoint x="431" y="480" as="sourcePoint" />
            <mxPoint x="391" y="580" as="targetPoint" />
          </mxGeometry>
        </mxCell>
        <mxCell id="eqaavjk_5cH76jJyOMta-19" value="" style="endArrow=classic;html=1;rounded=0;exitX=0.5;exitY=1;exitDx=0;exitDy=0;entryX=0.5;entryY=0;entryDx=0;entryDy=0;entryPerimeter=0;" edge="1" parent="1" source="eqaavjk_5cH76jJyOMta-9" target="eqaavjk_5cH76jJyOMta-22">
          <mxGeometry width="50" height="50" relative="1" as="geometry">
            <mxPoint x="441" y="490" as="sourcePoint" />
            <mxPoint x="391" y="670" as="targetPoint" />
          </mxGeometry>
        </mxCell>
        <mxCell id="eqaavjk_5cH76jJyOMta-20" value="예" style="text;html=1;strokeColor=none;fillColor=none;align=center;verticalAlign=middle;whiteSpace=wrap;rounded=0;" vertex="1" parent="1">
          <mxGeometry x="377" y="444" width="60" height="30" as="geometry" />
        </mxCell>
        <mxCell id="eqaavjk_5cH76jJyOMta-21" value="" style="endArrow=classic;html=1;rounded=0;exitX=1;exitY=0.5;exitDx=0;exitDy=0;exitPerimeter=0;" edge="1" parent="1" source="eqaavjk_5cH76jJyOMta-5">
          <mxGeometry width="50" height="50" relative="1" as="geometry">
            <mxPoint x="451" y="500" as="sourcePoint" />
            <mxPoint x="391" y="741" as="targetPoint" />
            <Array as="points">
              <mxPoint x="555" y="389" />
              <mxPoint x="555" y="741" />
            </Array>
          </mxGeometry>
        </mxCell>
        <mxCell id="eqaavjk_5cH76jJyOMta-22" value="변환된 LiDAR 값 출력" style="strokeWidth=2;html=1;shape=mxgraph.flowchart.document2;whiteSpace=wrap;size=0.25;" vertex="1" parent="1">
          <mxGeometry x="341" y="666" width="100" height="60" as="geometry" />
        </mxCell>
        <mxCell id="eqaavjk_5cH76jJyOMta-23" value="" style="endArrow=classic;html=1;rounded=0;exitX=0.5;exitY=0.933;exitDx=0;exitDy=0;exitPerimeter=0;entryX=0.5;entryY=0;entryDx=0;entryDy=0;entryPerimeter=0;" edge="1" parent="1" source="eqaavjk_5cH76jJyOMta-22" target="eqaavjk_5cH76jJyOMta-10">
          <mxGeometry width="50" height="50" relative="1" as="geometry">
            <mxPoint x="461" y="510" as="sourcePoint" />
            <mxPoint x="461" y="553" as="targetPoint" />
          </mxGeometry>
        </mxCell>
        <mxCell id="eqaavjk_5cH76jJyOMta-24" value="아니오" style="text;html=1;strokeColor=none;fillColor=none;align=center;verticalAlign=middle;whiteSpace=wrap;rounded=0;" vertex="1" parent="1">
          <mxGeometry x="456" y="364" width="60" height="30" as="geometry" />
        </mxCell>
      </root>
    </mxGraphModel>
  </diagram>
</mxfile>
